<svg xmlns="http://www.w3.org/2000/svg" viewBox="0 0 160 160" role="img" aria-labelledby="title desc">
  <title id="title">Avatar ficticio de Marina Duarte</title>
  <desc id="desc">Ilustracao circular de uma cliente ficticia.</desc>
  <rect width="160" height="160" rx="80" fill="#d9f3f5"/>
  <circle cx="80" cy="69" r="36" fill="#8b533a"/>
  <path d="M39 148c5-31 22-48 41-48s36 17 41 48" fill="#259eab"/>
  <path d="M48 64c0-27 14-44 34-44 24 0 37 18 37 45 0 16-8 30-20 38H68c-12-8-20-23-20-39z" fill="#2f2930"/>
  <circle cx="80" cy="72" r="31" fill="#a86745"/>
  <path d="M49 70c5-28 22-39 40-39 15 7 26 20 31 39-17-1-33-7-47-18-6 8-14 14-24 18z" fill="#2f2930"/>
  <circle cx="68" cy="73" r="3" fill="#1b2225"/>
  <circle cx="92" cy="73" r="3" fill="#1b2225"/>
  <path d="M69 91c8 7 16 7 24 0" fill="none" stroke="#592f27" stroke-width="4" stroke-linecap="round"/>
  <circle cx="58" cy="83" r="6" fill="#bc7659" opacity=".5"/>
  <circle cx="102" cy="83" r="6" fill="#bc7659" opacity=".5"/>
</svg>
