<svg xmlns="http://www.w3.org/2000/svg" viewBox="0 0 160 160" role="img" aria-labelledby="title desc">
  <title id="title">Avatar ficticio de Rafael Campos</title>
  <desc id="desc">Ilustracao circular de um cliente ficticio.</desc>
  <rect width="160" height="160" rx="80" fill="#eaf7ef"/>
  <path d="M38 149c6-30 23-48 42-48s36 18 42 48" fill="#07353f"/>
  <circle cx="80" cy="70" r="33" fill="#c47b52"/>
  <path d="M46 66c4-25 18-39 36-39 19 0 32 14 34 39-13-8-25-13-38-13-11 0-22 4-32 13z" fill="#33251f"/>
  <path d="M57 61c12-21 33-29 54-5-7-22-22-34-41-31-18 3-28 18-30 36 5-2 11-2 17 0z" fill="#33251f"/>
  <circle cx="68" cy="73" r="3" fill="#1b2225"/>
  <circle cx="93" cy="73" r="3" fill="#1b2225"/>
  <path d="M68 91c8 6 17 6 25 0" fill="none" stroke="#6b3a2d" stroke-width="4" stroke-linecap="round"/>
  <path d="M68 101c8 5 17 5 25 0" fill="#33251f" opacity=".35"/>
  <path d="M60 42c16-17 40-11 51 11-17-8-34-8-51-11z" fill="#403029"/>
</svg>
